<svg width="331" height="238" viewBox="0 0 331 238" fill="none" xmlns="http://www.w3.org/2000/svg">
<path d="M34.272 52.864L47.842 1.416H67.312L42.532 82.718H26.13L1.34999 1.416H20.584L34.272 52.864ZM109.705 84.134C86.4593 84.134 68.1693 65.018 68.1693 42.008C68.1693 18.998 86.4593 -1.78814e-06 109.705 -1.78814e-06C132.597 -1.78814e-06 151.123 18.998 151.123 42.008C151.123 65.018 132.597 84.134 109.705 84.134ZM109.587 66.67C123.157 66.67 132.479 55.578 132.479 42.008C132.479 28.438 123.157 17.464 109.587 17.464C95.8993 17.464 86.8133 28.438 86.8133 42.008C86.8133 55.578 95.8993 66.67 109.587 66.67ZM180.063 1.416V66.552H209.917V82.718H161.537V1.416H180.063ZM236.56 1.416V66.552H266.414V82.718H218.034V1.416H236.56ZM293.057 50.976V66.552H327.749V82.718H274.531V1.416H326.687V17.582H293.057V34.338H322.557V50.976H293.057ZM145.331 195.378V203.598H128.591V212.298H141.851V220.458H128.591V236.718H119.171V195.378H145.331ZM182.1 236.718H171.12L161.64 222.198H159.72V236.718H150.3V195.378H167.22C176.82 195.378 181.14 202.218 181.14 209.058C181.14 214.878 176.82 220.458 171.48 221.658L182.1 236.718ZM165.96 203.598H159.72V214.758H165.72C169.86 214.758 171.66 212.058 171.66 209.298C171.66 206.538 169.8 203.598 165.96 203.598ZM196.297 189.438C193.837 189.438 191.797 187.578 191.797 185.178C191.797 182.838 193.837 180.978 196.297 180.978C198.757 180.978 200.677 182.838 200.677 185.178C200.677 187.578 198.757 189.438 196.297 189.438ZM209.197 189.438C206.677 189.438 204.637 187.578 204.637 185.178C204.637 182.838 206.677 180.978 209.197 180.978C211.597 180.978 213.517 182.838 213.517 185.178C213.517 187.578 211.597 189.438 209.197 189.438ZM202.717 237.438C194.197 237.438 186.577 231.498 186.577 221.958V195.378H195.997V221.238C195.997 226.458 199.297 228.498 202.717 228.498C206.077 228.498 209.377 226.458 209.377 221.238V195.378H218.797V221.958C218.797 231.498 211.237 237.438 202.717 237.438ZM249.076 211.938V195.378H258.496V236.718H249.076V220.398H235.456V236.718H226.036V195.378H235.456V211.938H249.076ZM275.668 220.578V228.498H293.308V236.718H266.248V195.378H292.768V203.598H275.668V212.118H290.668V220.578H275.668ZM330.994 236.718H320.014L310.534 222.198H308.614V236.718H299.194V195.378H316.114C325.714 195.378 330.034 202.218 330.034 209.058C330.034 214.878 325.714 220.458 320.374 221.658L330.994 236.718ZM314.854 203.598H308.614V214.758H314.614C318.754 214.758 320.554 212.058 320.554 209.298C320.554 206.538 318.694 203.598 314.854 203.598Z" fill="#599BF1"/>
<path d="M49.121 131.527V101.995H65.92V175.718H49.121V146.614H24.832V175.718H8.03299V101.995H24.832V131.527H49.121ZM143.195 175.718H125.326L119.762 158.598H93.8679L88.4109 175.718H70.4349L97.7199 101.995H116.017L143.195 175.718ZM106.708 118.045L98.4689 144.046H115.054L106.708 118.045ZM210.935 175.718H193.066L187.502 158.598H161.608L156.151 175.718H138.175L165.46 101.995H183.757L210.935 175.718ZM174.448 118.045L166.209 144.046H182.794L174.448 118.045ZM271.934 175.718H252.353L235.447 149.824H232.023V175.718H215.224V101.995H245.398C262.518 101.995 270.222 114.193 270.222 126.391C270.222 136.77 262.518 146.721 252.995 148.861L271.934 175.718ZM243.151 116.654H232.023V136.556H242.723C250.106 136.556 253.316 131.741 253.316 126.819C253.316 121.897 249.999 116.654 243.151 116.654ZM297.465 146.935V161.059H328.923V175.718H280.666V101.995H327.96V116.654H297.465V131.848H324.215V146.935H297.465ZM35.64 220.218L43.26 195.378H53.52L39.48 236.718H32.16L26.64 215.718L21.3 236.718H13.92L-1.34148e-05 195.378H10.14L17.76 220.098L22.86 201.258H30.6L35.64 220.218ZM66.2564 236.718H56.8364V195.378H66.2564V236.718ZM83.4408 220.578V228.498H101.081V236.718H74.0208V195.378H100.541V203.598H83.4408V212.118H98.4408V220.578H83.4408Z" fill="#0F0F0F"/>
</svg>
