<svg width="1082" height="323" viewBox="0 0 1082 323" fill="none" xmlns="http://www.w3.org/2000/svg">
<path d="M50.967 79.744L71.437 2.13601H100.807L63.427 124.778H38.685L1.30501 2.13601H30.319L50.967 79.744ZM164.756 126.914C129.69 126.914 102.1 98.078 102.1 63.368C102.1 28.658 129.69 8.9407e-06 164.756 8.9407e-06C199.288 8.9407e-06 227.234 28.658 227.234 63.368C227.234 98.078 199.288 126.914 164.756 126.914ZM164.578 100.57C185.048 100.57 199.11 83.838 199.11 63.368C199.11 42.898 185.048 26.344 164.578 26.344C143.93 26.344 130.224 42.898 130.224 63.368C130.224 83.838 143.93 100.57 164.578 100.57ZM270.889 2.13601V100.392H315.923V124.778H242.943V2.13601H270.889ZM356.113 2.13601V100.392H401.147V124.778H328.167V2.13601H356.113ZM441.338 76.896V100.392H493.67V124.778H413.392V2.13601H492.068V26.522H441.338V51.798H485.838V76.896H441.338ZM472.325 185.423V212.138H417.92V240.413H461.015V266.933H417.92V319.778H387.305V185.423H472.325ZM591.827 319.778H556.142L525.332 272.588H519.092V319.778H488.477V185.423H543.467C574.667 185.423 588.707 207.653 588.707 229.883C588.707 248.798 574.667 266.933 557.312 270.833L591.827 319.778ZM539.372 212.138H519.092V248.408H538.592C552.047 248.408 557.897 239.633 557.897 230.663C557.897 221.693 551.852 212.138 539.372 212.138ZM637.964 166.118C629.969 166.118 623.339 160.073 623.339 152.273C623.339 144.668 629.969 138.623 637.964 138.623C645.959 138.623 652.199 144.668 652.199 152.273C652.199 160.073 645.959 166.118 637.964 166.118ZM679.889 166.118C671.699 166.118 665.069 160.073 665.069 152.273C665.069 144.668 671.699 138.623 679.889 138.623C687.689 138.623 693.929 144.668 693.929 152.273C693.929 160.073 687.689 166.118 679.889 166.118ZM658.829 322.118C631.139 322.118 606.374 302.813 606.374 271.808V185.423H636.989V269.468C636.989 286.433 647.714 293.063 658.829 293.063C669.749 293.063 680.474 286.433 680.474 269.468V185.423H711.089V271.808C711.089 302.813 686.519 322.118 658.829 322.118ZM809.498 239.243V185.423H840.113V319.778H809.498V266.738H765.233V319.778H734.618V185.423H765.233V239.243H809.498ZM895.921 267.323V293.063H953.251V319.778H865.306V185.423H951.496V212.138H895.921V239.828H944.671V267.323H895.921ZM1075.73 319.778H1040.05L1009.24 272.588H1003V319.778H972.381V185.423H1027.37C1058.57 185.423 1072.61 207.653 1072.61 229.883C1072.61 248.798 1058.57 266.933 1041.22 270.833L1075.73 319.778ZM1023.28 212.138H1003V248.408H1022.5C1035.95 248.408 1041.8 239.633 1041.8 230.663C1041.8 221.693 1035.76 212.138 1023.28 212.138Z" fill="#5799F1"/>
<path d="M615.689 51.264V2.13601H643.635V124.778H615.689V76.362H575.283V124.778H547.337V2.13601H575.283V51.264H615.689ZM772.185 124.778H742.459L733.203 96.298H690.127L681.049 124.778H651.145L696.535 2.13601H726.973L772.185 124.778ZM711.487 28.836L697.781 72.09H725.371L711.487 28.836ZM884.875 124.778H855.149L845.893 96.298H802.817L793.739 124.778H763.835L809.225 2.13601H839.663L884.875 124.778ZM824.177 28.836L810.471 72.09H838.061L824.177 28.836ZM986.35 124.778H953.776L925.652 81.702H919.956V124.778H892.01V2.13601H942.206C970.686 2.13601 983.502 22.428 983.502 42.72C983.502 59.986 970.686 76.54 954.844 80.1L986.35 124.778ZM938.468 26.522H919.956V59.63H937.756C950.038 59.63 955.378 51.62 955.378 43.432C955.378 35.244 949.86 26.522 938.468 26.522ZM1028.82 76.896V100.392H1081.15V124.778H1000.88V2.13601H1079.55V26.522H1028.82V51.798H1073.32V76.896H1028.82ZM115.83 266.153L140.595 185.423H173.94L128.31 319.778H104.52L86.58 251.528L69.225 319.778H45.24L9.80776e-06 185.423H32.955L57.72 265.763L74.295 204.533H99.45L115.83 266.153ZM215.333 319.778H184.718V185.423H215.333V319.778ZM271.183 267.323V293.063H328.513V319.778H240.568V185.423H326.758V212.138H271.183V239.828H319.933V267.323H271.183Z" fill="black"/>
</svg>
