<svg width="96" height="16" viewBox="0 0 96 16" fill="none" xmlns="http://www.w3.org/2000/svg">
<mask id="mask0_2036_252" style="mask-type:alpha" maskUnits="userSpaceOnUse" x="0" y="0" width="17" height="16">
<rect width="16.7892" height="15.9994" fill="#EBC33E"/>
</mask>
<g mask="url(#mask0_2036_252)">
<path d="M8.75884 0.221166L11.1622 4.98812L16.4452 5.80221C16.6637 5.84198 16.8228 6.04079 16.783 6.25928C16.7629 6.35848 16.7232 6.438 16.6637 6.49744L12.8699 10.2515L13.7242 15.5345C13.764 15.753 13.6049 15.9715 13.3864 15.9916C13.2872 16.0113 13.2077 15.9916 13.1282 15.9518L8.3813 13.5284L3.63444 15.9518C3.43604 16.051 3.19747 15.9715 3.09827 15.7731C3.05851 15.6936 3.03883 15.614 3.05851 15.5345L3.89269 10.2515L0.118975 6.49744C-0.0396583 6.33881 -0.0396583 6.08055 0.118975 5.9215C0.178829 5.84198 0.278027 5.80221 0.357553 5.80221L5.62092 4.98812L8.02386 0.221166C8.12347 0.0223515 8.3813 -0.0567559 8.58012 0.0424422C8.65965 0.0822052 8.71908 0.14164 8.75884 0.221166Z" fill="#EBC33E"/>
</g>
<mask id="mask1_2036_252" style="mask-type:alpha" maskUnits="userSpaceOnUse" x="19" y="0" width="18" height="16">
<rect x="19.6726" width="16.7892" height="15.9994" fill="#EBC33E"/>
</mask>
<g mask="url(#mask1_2036_252)">
<path d="M28.4315 0.221166L30.8348 4.98812L36.1178 5.80221C36.3363 5.84198 36.4954 6.04079 36.4556 6.25928C36.4355 6.35848 36.3958 6.438 36.3363 6.49744L32.5425 10.2515L33.3968 15.5345C33.4366 15.753 33.2775 15.9715 33.059 15.9916C32.9598 16.0113 32.8803 15.9916 32.8008 15.9518L28.0539 13.5284L23.307 15.9518C23.1087 16.051 22.8701 15.9715 22.7709 15.7731C22.7311 15.6936 22.7114 15.614 22.7311 15.5345L23.5653 10.2515L19.7916 6.49744C19.6329 6.33881 19.6329 6.08055 19.7916 5.9215C19.8514 5.84198 19.9506 5.80221 20.0302 5.80221L25.2935 4.98812L27.6965 0.221166C27.7961 0.0223515 28.0539 -0.0567559 28.2527 0.0424422C28.3323 0.0822052 28.3917 0.14164 28.4315 0.221166Z" fill="#EBC33E"/>
</g>
<mask id="mask2_2036_252" style="mask-type:alpha" maskUnits="userSpaceOnUse" x="39" y="0" width="18" height="16">
<rect x="39.3451" width="16.7892" height="15.9994" fill="#EBC33E"/>
</mask>
<g mask="url(#mask2_2036_252)">
<path d="M48.1039 0.221166L50.5073 4.98812L55.7903 5.80221C56.0088 5.84198 56.1679 6.04079 56.1281 6.25928C56.108 6.35848 56.0683 6.438 56.0088 6.49744L52.215 10.2515L53.0693 15.5345C53.109 15.753 52.95 15.9715 52.7315 15.9916C52.6323 16.0113 52.5528 15.9916 52.4733 15.9518L47.7264 13.5284L42.9795 15.9518C42.7811 16.051 42.5426 15.9715 42.4434 15.7731C42.4036 15.6936 42.3839 15.614 42.4036 15.5345L43.2378 10.2515L39.4641 6.49744C39.3054 6.33881 39.3054 6.08055 39.4641 5.9215C39.5239 5.84198 39.6231 5.80221 39.7026 5.80221L44.966 4.98812L47.3689 0.221166C47.4686 0.0223515 47.7264 -0.0567559 47.9252 0.0424422C48.0047 0.0822052 48.0642 0.14164 48.1039 0.221166Z" fill="#EBC33E"/>
</g>
<mask id="mask3_2036_252" style="mask-type:alpha" maskUnits="userSpaceOnUse" x="59" y="0" width="17" height="16">
<rect x="59.017" width="16.7892" height="15.9994" fill="#EBC33E"/>
</mask>
<g mask="url(#mask3_2036_252)">
<path d="M67.7768 0.221166L70.1801 4.98812L75.4632 5.80221C75.6817 5.84198 75.8407 6.04079 75.801 6.25928C75.7809 6.35848 75.7411 6.438 75.6817 6.49744L71.8879 10.2515L72.7421 15.5345C72.7819 15.753 72.6228 15.9715 72.4044 15.9916C72.3052 16.0113 72.2256 15.9916 72.1461 15.9518L67.3992 13.5284L62.6524 15.9518C62.454 16.051 62.2154 15.9715 62.1162 15.7731C62.0764 15.6936 62.0568 15.614 62.0764 15.5345L62.9106 10.2515L59.1369 6.49744C58.9783 6.33881 58.9783 6.08055 59.1369 5.9215C59.1968 5.84198 59.296 5.80221 59.3755 5.80221L64.6389 4.98812L67.0418 0.221166C67.1414 0.0223515 67.3992 -0.0567559 67.5981 0.0424422C67.6776 0.0822052 67.737 0.14164 67.7768 0.221166Z" fill="#EBC33E"/>
</g>
<mask id="mask4_2036_252" style="mask-type:alpha" maskUnits="userSpaceOnUse" x="78" y="0" width="18" height="16">
<rect x="78.6886" width="16.7892" height="15.9994" fill="#EBC33E"/>
</mask>
<g mask="url(#mask4_2036_252)">
<path d="M87.4474 0.221166L89.8508 4.98812L95.1338 5.80221C95.3523 5.84198 95.5114 6.04079 95.4716 6.25928C95.4515 6.35848 95.4118 6.438 95.3523 6.49744L91.5585 10.2515L92.4128 15.5345C92.4526 15.753 92.2935 15.9715 92.075 15.9916C91.9758 16.0113 91.8963 15.9916 91.8168 15.9518L87.0699 13.5284L82.323 15.9518C82.1246 16.051 81.8861 15.9715 81.7869 15.7731C81.7471 15.6936 81.7274 15.614 81.7471 15.5345L82.5813 10.2515L78.8076 6.49744C78.6489 6.33881 78.6489 6.08055 78.8076 5.9215C78.8674 5.84198 78.9666 5.80221 79.0462 5.80221L84.3095 4.98812L86.7125 0.221166C86.8121 0.0223515 87.0699 -0.0567559 87.2687 0.0424422C87.3482 0.0822052 87.4077 0.14164 87.4474 0.221166Z" fill="#EBC33E"/>
</g>
</svg>
