<svg width="101" height="19" viewBox="0 0 101 19" fill="none" xmlns="http://www.w3.org/2000/svg">
<g clip-path="url(#clip0_2036_234)">
<path d="M18.9 0H0V18.9H18.9V0Z" fill="#00B67A"/>
<path d="M39.375 0H20.475V18.9H39.375V0Z" fill="#00B67A"/>
<path d="M59.85 0H40.95V18.9H59.85V0Z" fill="#00B67A"/>
<path d="M80.325 0H61.425V18.9H80.325V0Z" fill="#00B67A"/>
<path d="M100.8 0H91.35V18.9H100.8V0Z" fill="#939393" fill-opacity="0.31"/>
<path d="M91.35 0H81.9V18.9H91.35V0Z" fill="#00B67A"/>
<path d="M9.44996 12.7378L12.3243 12.0094L13.5253 15.7106L9.44996 12.7378ZM16.065 7.95377H11.0053L9.44996 3.18939L7.89465 7.95377H2.83496L6.92996 10.9069L5.37465 15.6713L9.46965 12.7181L11.9896 10.9069L16.065 7.95377Z" fill="white"/>
<path d="M29.9249 12.7378L32.7993 12.0094L34.0002 15.7106L29.9249 12.7378ZM36.5399 7.95377H31.4802L29.9249 3.18939L28.3696 7.95377H23.3099L27.4049 10.9069L25.8496 15.6713L29.9446 12.7181L32.4646 10.9069L36.5399 7.95377Z" fill="white"/>
<path d="M50.4 12.7378L53.2744 12.0094L54.4754 15.7106L50.4 12.7378ZM57.015 7.95377H51.9553L50.4 3.18939L48.8447 7.95377H43.785L47.88 10.9069L46.3247 15.6713L50.4197 12.7181L52.9397 10.9069L57.015 7.95377Z" fill="white"/>
<path d="M70.875 12.7378L73.7494 12.0094L74.9503 15.7106L70.875 12.7378ZM77.49 7.95377H72.4303L70.875 3.18939L69.3197 7.95377H64.26L68.355 10.9069L66.7997 15.6713L70.8947 12.7181L73.4147 10.9069L77.49 7.95377Z" fill="white"/>
<path d="M91.35 12.7378L94.2244 12.0094L95.4253 15.7106L91.35 12.7378ZM97.965 7.95377H92.9053L91.35 3.18939L89.7947 7.95377H84.735L88.83 10.9069L87.2747 15.6713L91.3697 12.7181L93.8897 10.9069L97.965 7.95377Z" fill="white"/>
</g>
<defs>
<clipPath id="clip0_2036_234">
<rect width="100.8" height="18.9" fill="white"/>
</clipPath>
</defs>
</svg>
